<svg width="347" height="499" viewBox="0 0 347 499" fill="none" xmlns="http://www.w3.org/2000/svg">
<rect width="347" height="499" fill="#D0D0D0"/>
<path d="M199 200H149C146.79 200 144.67 200.878 143.107 202.441C141.545 204.004 140.667 206.123 140.667 208.333V241.667C140.667 243.877 141.545 245.996 143.107 247.559C144.67 249.122 146.79 250 149 250H199C201.21 250 203.33 249.122 204.893 247.559C206.455 245.996 207.333 243.877 207.333 241.667V208.333C207.333 206.123 206.455 204.004 204.893 202.441C203.33 200.878 201.21 200 199 200ZM190.667 233.333H157.333V216.667H190.667V233.333ZM215.667 166.667H115.667C113.457 166.667 111.337 167.545 109.774 169.107C108.211 170.67 107.333 172.79 107.333 175V325C107.333 327.21 108.211 329.33 109.774 330.893C111.337 332.455 113.457 333.333 115.667 333.333H215.667C222.297 333.333 228.656 330.699 233.344 326.011C238.033 321.323 240.667 314.964 240.667 308.333V191.667C240.667 185.036 238.033 178.677 233.344 173.989C228.656 169.301 222.297 166.667 215.667 166.667ZM224 308.333C224 310.543 223.122 312.663 221.559 314.226C219.996 315.789 217.877 316.667 215.667 316.667H124V183.333H215.667C217.877 183.333 219.996 184.211 221.559 185.774C223.122 187.337 224 189.457 224 191.667V308.333Z" fill="#989898"/>
</svg>
